<?xml version='1.0' encoding='iso-8859-1'?><svg xmlns="http://www.w3.org/2000/svg" viewBox="0 0 463 463" width="463" height="463"><path d="M450.858 191.216a7.495 7.495 0 007.916.857 7.5 7.5 0 004.226-6.748v-40a7.499 7.499 0 00-2.858-5.891L338.043 43.235a23.431 23.431 0 00-29.087 0L263 79.443V65.325a7.5 7.5 0 00-7.5-7.5h-32a7.5 7.5 0 00-7.5 7.5v51.149l-29.142 22.96a7.499 7.499 0 00-2.858 5.891v40a7.5 7.5 0 0012.142 5.892l3.858-3.04v73.086l-69.957-55.117a23.43 23.43 0 00-29.087 0L2.858 283.434A7.497 7.497 0 000 289.325v40a7.5 7.5 0 0012.142 5.891l3.858-3.04v77.649H7.5a7.5 7.5 0 000 15h448a7.5 7.5 0 000-15H447V188.176l3.858 3.04zM231 72.825h17v18.437l-17 13.394V72.825zm-32 76.139l119.24-93.946a8.476 8.476 0 0110.521 0L448 148.964v20.903L328.142 75.434c-1.361-1.073-3.001-1.609-4.642-1.609s-3.28.536-4.642 1.609L199 169.867v-20.903zm-184 144l95.24-75.037a8.476 8.476 0 0110.521 0L200 280.358v20.904l-79.858-62.919a7.497 7.497 0 00-9.283 0L15 313.868v-20.904zm16 27.394l84.5-66.575 84.5 66.576v89.467h-33v-88.5a7.5 7.5 0 00-7.5-7.5h-88a7.5 7.5 0 00-7.5 7.5v88.5H31v-89.468zm48 40.467h73v17H79v-17zm73-15H79v-17h73v17zm-73 47h73v17H79v-17zm217-38.975c-.166-.011-.333-.025-.5-.025-1.97 0-3.91.8-5.3 2.2a7.528 7.528 0 00-2.2 5.3c0 1.97.8 3.91 2.2 5.3 1.39 1.4 3.33 2.2 5.3 2.2.167 0 .334-.014.5-.025v41.025h-33v-97h33v41.025zm136 55.975H311v-104.5a7.5 7.5 0 00-7.5-7.5h-48a7.5 7.5 0 00-7.5 7.5v104.5h-33V176.358l108.5-85.485L432 176.358v233.467z"/><path d="M343.5 376.825h48a7.5 7.5 0 007.5-7.5v-64a7.5 7.5 0 00-7.5-7.5h-48a7.5 7.5 0 00-7.5 7.5v64a7.5 7.5 0 007.5 7.5zm7.5-15v-25h33v25h-33zm33-49v9h-33v-9h33zM343.5 264.825h48a7.5 7.5 0 007.5-7.5v-64a7.5 7.5 0 00-7.5-7.5h-48a7.5 7.5 0 00-7.5 7.5v64a7.5 7.5 0 007.5 7.5zm7.5-15v-25h33v25h-33zm33-49v9h-33v-9h33zM303.5 185.825h-48a7.5 7.5 0 00-7.5 7.5v64a7.5 7.5 0 007.5 7.5h48a7.5 7.5 0 007.5-7.5v-64a7.5 7.5 0 00-7.5-7.5zm-7.5 15v9h-33v-9h33zm-33 49v-25h33v25h-33z"/></svg>