<?xml version="1.0" encoding="utf-8"?><svg height="512" viewBox="0 0 512.001 512" width="512" xmlns="http://www.w3.org/2000/svg"><path d="M102.004 451.96c-5.524 0-10 4.481-10 10v.009c0 5.523 4.476 10 10 10 5.523 0 10-4.485 10-10.008 0-5.52-4.477-10-10-10zm0 0M332.004 239.965H332c-5.523 0-10 4.48-10 10 0 5.523 4.484 10.004 10.004 10.004 5.523 0 10-4.48 10-10.004 0-5.52-4.477-10-10-10zm0 0M322.008 161.715c16.543 0 30-13.457 30-30s-13.457-30-30-30-30 13.457-30 30 13.457 30 30 30zm0-40c5.512 0 10 4.484 10 10 0 5.512-4.488 10-10 10-5.516 0-10-4.488-10-10 0-5.516 4.484-10 10-10zm0 0"/><path d="M157.55 177.168c1.544.238 3.09.355 4.622.355 4.152 0 8.219-.878 12.004-2.55v134.996c0 5.523 4.476 10 10 10H459.84c5.52 0 10-4.477 10-10V174.977c12.57 5.535 27.77 1.824 36.222-9.704 9.762-13.32 6.872-32.105-6.437-41.859L340.156 6.082c-10.484-7.988-25.215-8.125-35.875-.312l-47.726 35.117c-4.446 3.27-5.399 9.531-2.125 13.98 3.273 4.45 9.53 5.399 13.98 2.13l47.711-35.106c3.547-2.602 8.461-2.551 11.941.125.055.043.11.082.165.12l159.558 117.4c4.43 3.245 5.39 9.487 2.145 13.913-3.242 4.426-9.489 5.39-13.899 2.153L327.934 46.637a10.004 10.004 0 00-11.856 0L167.996 155.594a9.887 9.887 0 01-7.398 1.808 9.903 9.903 0 01-6.516-3.953 9.893 9.893 0 01-1.809-7.402 9.893 9.893 0 013.965-6.524l47.735-35.117c4.445-3.273 5.398-9.531 2.129-13.98-3.274-4.453-9.536-5.403-13.98-2.13l-47.72 35.11c-6.453 4.73-10.68 11.688-11.898 19.598-1.219 7.906.719 15.816 5.445 22.27 4.735 6.453 11.692 10.675 19.602 11.894zm114.454 82.797h-37.828v-39.996h37.828zm20.004-60h60v100.004h-60zm80 20.004h37.828v39.996h-37.828zm-50-152.86L449.84 161.16V299.97h-77.832v-20h47.828c5.523 0 10-4.48 10-10v-60c0-5.524-4.477-10-10-10h-47.828c0-11.028-8.973-20-20-20h-60c-11.031 0-20.004 8.972-20.004 20h-47.828c-5.52 0-10 4.476-10 10v60c0 5.52 4.48 10 10 10h47.828v20h-77.828V161.164zm0 0"/><path d="M230.27 82.648c2.09 0 4.195-.652 5.992-2l.008-.003c4.417-3.317 5.308-9.582 1.996-14s-9.586-5.31-14.004-1.997-5.313 9.582-2 14a9.993 9.993 0 008.008 4zm0 0M510.559 369.66c-4.32-13.426-19.164-25.289-41.551-19.61l-.172.048-91.527 24.957c-1.625-6.54-5.368-12.317-10.778-16.528-6.347-4.937-14.215-7.109-22.136-6.117-5.352.672-19.786 2.77-35.063 4.985-14.5 2.105-29.496 4.28-34.648 4.93-11.82 1.48-25.723-4.118-40.446-10.048-23.34-9.398-51.558-20.757-82.23-7.152v-3.156c0-5.524-4.48-10-10-10H62c-5.52 0-10 4.476-10 10H10c-5.523 0-10 4.476-10 10s4.477 10 10 10h42v120.004H10c-5.523 0-10 4.476-10 10 0 5.523 4.477 10 10 10h42c0 5.523 4.48 10 10 10h80.004c5.523 0 10-4.477 10-10V491.53l13.344.086h.062c5.492 0 9.965-4.437 10-9.937.035-5.524-4.414-10.028-9.937-10.063l-13.47-.086v-103.75c26.18-16.492 49.813-6.996 74.763 3.051 16.441 6.621 33.445 13.469 50.41 11.336 5.344-.672 19.762-2.766 35.027-4.98 14.512-2.106 29.52-4.282 34.68-4.934 2.617-.324 5.234.402 7.36 2.055a10.212 10.212 0 013.89 6.836c.219 1.77.8 6.476-11.73 12.289-26.532 12.304-54.801 22.836-77.563 28.894a10.001 10.001 0 105.144 19.328c23.832-6.344 53.297-17.304 80.832-30.078 9.579-4.441 15.465-9.61 18.938-14.82l100.254-27.34c10.543-2.648 15.957 1.547 17.508 6.363 1.523 4.746-.313 10.856-7.856 13.832-7.844 2.989-26.582 11.239-50.293 21.672-31.41 13.824-70.5 31.027-101.668 43.672-37.047 15.023-48.324 17.262-86.261 17.156h-.028c-5.512 0-9.984 4.457-10 9.969-.02 5.523 4.445 10.016 9.969 10.031.82 0 1.629.004 2.426.004 38.613 0 52.863-2.992 91.41-18.629 31.441-12.754 70.68-30.023 102.207-43.898 22.574-9.934 42.066-18.512 49.402-21.305l.094-.035c18.684-7.324 24.023-24.957 19.64-38.59zM72.004 491.973V351.969h60v140.004zm0 0"/><path d="M205.414 471.867h-.008c-5.523 0-9.996 4.477-9.996 10 0 5.524 4.48 10 10.004 10 5.524 0 10-4.476 10-10 0-5.523-4.476-10-10-10zm0 0"/></svg>