<?xml version="1.0" encoding="utf-8"?><svg height="512" viewBox="-32 0 512 512" width="512" xmlns="http://www.w3.org/2000/svg"><path d="M144 256H37.332C16.746 256 0 239.254 0 218.668v-32c0-20.59 16.746-37.336 37.332-37.336H144c8.832 0 16 7.168 16 16V240c0 8.832-7.168 16-16 16zM37.332 181.332A5.337 5.337 0 0032 186.668v32A5.336 5.336 0 0037.332 224H128v-42.668zm0 0"/><path d="M368 405.332a16.09 16.09 0 01-8.66-2.539l-224-144c-7.426-4.777-9.578-14.676-4.8-22.102 4.776-7.464 14.698-9.62 22.12-4.82L352 360.02V45.313L152.66 173.46c-7.422 4.777-17.344 2.668-22.12-4.82-4.778-7.403-2.626-17.325 4.8-22.102l224-144c4.926-3.137 11.176-3.39 16.32-.578A16.017 16.017 0 01384 16v373.332c0 5.848-3.2 11.223-8.34 14.04a15.78 15.78 0 01-7.66 1.96zm0 0M80 469.332c-8.832 0-16-7.168-16-16v-208c0-8.832 7.168-16 16-16s16 7.168 16 16v208c0 8.832-7.168 16-16 16zm0 0"/><path d="M122.668 512a15.89 15.89 0 01-11.309-4.691L80 475.945 48.64 507.31c-6.25 6.25-16.382 6.25-22.636 0-6.25-6.254-6.25-16.387 0-22.637l42.668-42.668c6.25-6.25 16.383-6.25 22.637 0l42.664 42.668c6.25 6.25 6.25 16.383 0 22.637-3.114 3.132-7.211 4.691-11.305 4.691zm0 0M410.668 405.332H368c-8.832 0-16-7.168-16-16s7.168-16 16-16h42.668A5.334 5.334 0 00416 368V37.332A5.336 5.336 0 00410.668 32H368c-8.832 0-16-7.168-16-16s7.168-16 16-16h42.668C431.254 0 448 16.746 448 37.332V368c0 20.586-16.746 37.332-37.332 37.332zm0 0"/></svg>