<svg height="512pt" viewBox="0 0 512.00056 512" width="512pt" xmlns="http://www.w3.org/2000/svg"><path d="m102.003906 451.960938c-5.523437 0-10 4.480468-10 10v.007812c0 5.523438 4.476563 10 10 10 5.523438 0 10-4.484375 10-10.007812 0-5.519532-4.476562-10-10-10zm0 0"/><path d="m332.003906 239.964844h-.003906c-5.523438 0-10 4.480468-10 10 0 5.523437 4.484375 10.003906 10.003906 10.003906 5.523438 0 10-4.480469 10-10.003906 0-5.519532-4.476562-10-10-10zm0 0"/><path d="m322.007812 161.714844c16.542969 0 30-13.457032 30-30 0-16.542969-13.457031-30-30-30-16.542968 0-30 13.457031-30 30 0 16.542968 13.457032 30 30 30zm0-40c5.511719 0 10 4.484375 10 10 0 5.511718-4.488281 10-10 10-5.515624 0-10-4.488282-10-10 0-5.515625 4.484376-10 10-10zm0 0"/><path d="m157.550781 177.167969c1.542969.238281 3.089844.355469 4.621094.355469 4.152344 0 8.21875-.878907 12.003906-2.550782v134.996094c0 5.523438 4.476563 10 10 10h275.664063c5.519531 0 10-4.476562 10-10v-134.992188c12.570312 5.535157 27.769531 1.824219 36.222656-9.703124 9.761719-13.320313 6.871094-32.105469-6.4375-41.859376l-159.46875-117.332031c-10.484375-7.988281-25.214844-8.125-35.875-.3125l-47.726562 35.117188c-4.445313 3.269531-5.398438 9.53125-2.125 13.980469 3.273437 4.449218 9.53125 5.398437 13.980468 2.128906l47.710938-35.105469c3.546875-2.601563 8.460937-2.550781 11.941406.125.054688.042969.109375.082031.164062.121094l159.558594 117.398437c4.429688 3.246094 5.390625 9.488282 2.144532 13.914063-3.242188 4.425781-9.488282 5.390625-13.898438 2.152343l-148.097656-108.964843c-3.523438-2.59375-8.328125-2.59375-11.855469 0l-148.082031 108.957031c-2.144532 1.570312-4.773438 2.214844-7.398438 1.808594-2.628906-.40625-4.941406-1.808594-6.515625-3.953125-1.570312-2.144531-2.214843-4.773438-1.808593-7.402344.402343-2.628906 1.808593-4.941406 3.964843-6.523437l47.734375-35.117188c4.445313-3.273438 5.398438-9.53125 2.128906-13.980469-3.273437-4.453125-9.535156-5.402343-13.980468-2.128906l-47.71875 35.109375c-6.453125 4.730469-10.679688 11.6875-11.898438 19.597656-1.21875 7.90625.71875 15.816406 5.445313 22.269532 4.734375 6.453124 11.691406 10.675781 19.601562 11.894531zm114.453125 82.796875h-37.828125v-39.996094h37.828125zm20.003906-60h60v100.003906h-60zm80 20.003906h37.828126v39.996094h-37.828126zm-50-152.859375 127.832032 94.050781v138.808594h-77.832032v-20h47.828126c5.523437 0 10-4.480469 10-10v-60c0-5.523438-4.476563-10-10-10h-47.828126c0-11.027344-8.972656-20-20-20h-60c-11.03125 0-20.003906 8.972656-20.003906 20h-47.828125c-5.519531 0-10 4.476562-10 10v60c0 5.519531 4.480469 10 10 10h47.828125v20h-77.828125v-138.804688zm0 0"/><path d="m230.269531 82.648438c2.089844 0 4.195313-.652344 5.992188-2l.007812-.003907c4.417969-3.316406 5.308594-9.582031 1.996094-14s-9.585937-5.308593-14.003906-1.996093-5.3125 9.582031-2 14c1.964843 2.617187 4.96875 4 8.007812 4zm0 0"/><path d="m510.558594 369.660156c-4.320313-13.425781-19.164063-25.289062-41.550782-19.609375-.058593.015625-.113281.03125-.171874.046875l-91.527344 24.957032c-1.625-6.539063-5.367188-12.316407-10.777344-16.527344-6.347656-4.9375-14.214844-7.109375-22.136719-6.117188-5.351562.671875-19.785156 2.769532-35.0625 4.984375-14.5 2.105469-29.496093 4.28125-34.648437 4.929688-11.820313 1.480469-25.722656-4.117188-40.445313-10.046875-23.339843-9.398438-51.558593-20.757813-82.230469-7.152344v-3.15625c0-5.523438-4.480468-10-10-10h-80.007812c-5.519531 0-10 4.476562-10 10h-42c-5.523438 0-10 4.476562-10 10s4.476562 10 10 10h42v120.003906h-42c-5.523438 0-10 4.476563-10 10 0 5.523438 4.476562 10 10 10h42c0 5.523438 4.480469 10 10 10h80.003906c5.523438 0 10-4.476562 10-10v-10.441406l13.34375.085938h.0625c5.492188 0 9.964844-4.4375 10-9.9375.035156-5.523438-4.414062-10.027344-9.9375-10.0625l-13.46875-.085938v-103.75c26.179688-16.492188 49.8125-6.996094 74.761719 3.050781 16.441406 6.621094 33.445313 13.46875 50.410156 11.335938 5.34375-.671875 19.761719-2.765625 35.027344-4.980469 14.511719-2.105469 29.519531-4.28125 34.679687-4.933594 2.617188-.324218 5.234376.402344 7.359376 2.054688 2.171874 1.691406 3.550781 4.117187 3.890624 6.835937.21875 1.769531.800782 6.476563-11.730468 12.289063-26.53125 12.304687-54.800782 22.835937-77.5625 28.894531-5.339844 1.421875-8.511719 6.898437-7.09375 12.234375 1.421875 5.339844 6.898437 8.515625 12.238281 7.09375 23.832031-6.34375 53.296875-17.304688 80.832031-30.078125 9.578125-4.441406 15.464844-9.609375 18.9375-14.820313l100.253906-27.339843c10.542969-2.648438 15.957032 1.546875 17.507813 6.363281 1.523437 4.746094-.3125 10.855469-7.855469 13.832031-7.84375 2.988281-26.582031 11.238281-50.292968 21.671875-31.410157 13.824219-70.5 31.027344-101.667969 43.671875-37.046875 15.023438-48.324219 17.261719-86.261719 17.15625-.007812 0-.019531 0-.027344 0-5.511718 0-9.984375 4.457031-10 9.96875-.019531 5.523438 4.445313 10.015625 9.96875 10.03125.820313 0 1.628906.003907 2.425782.003907 38.613281 0 52.863281-2.992188 91.410156-18.628907 31.441406-12.753906 70.679687-30.023437 102.207031-43.898437 22.574219-9.933594 42.066406-18.511719 49.402344-21.304688.03125-.011718.0625-.023437.09375-.035156 18.683593-7.324219 24.023437-24.957031 19.640625-38.589844zm-438.554688 122.3125v-140.003906h60v129.421875.015625.023438 10.542968zm0 0"/><path d="m205.414062 471.867188h-.007812c-5.523438 0-9.996094 4.476562-9.996094 10 0 5.523437 4.480469 10 10.003906 10 5.523438 0 10-4.476563 10-10 0-5.523438-4.476562-10-10-10zm0 0"/></svg>