<svg height="512pt" viewBox="-32 0 512 512" width="512pt" xmlns="http://www.w3.org/2000/svg"><path d="m144 256h-106.667969c-20.585937 0-37.332031-16.746094-37.332031-37.332031v-32c0-20.589844 16.746094-37.335938 37.332031-37.335938h106.667969c8.832031 0 16 7.167969 16 16v74.667969c0 8.832031-7.167969 16-16 16zm-106.667969-74.667969c-2.941406 0-5.332031 2.390625-5.332031 5.335938v32c0 2.941406 2.390625 5.332031 5.332031 5.332031h90.667969v-42.667969zm0 0"/><path d="m368 405.332031c-3.007812 0-6.015625-.851562-8.660156-2.539062l-224-144c-7.425782-4.777344-9.578125-14.675781-4.800782-22.101563 4.777344-7.464844 14.699219-9.621094 22.121094-4.820312l199.339844 128.148437v-314.707031l-199.339844 128.148438c-7.421875 4.777343-17.34375 2.667968-22.121094-4.820313-4.777343-7.402344-2.625-17.324219 4.800782-22.101563l224-144c4.925781-3.136718 11.175781-3.390624 16.320312-.578124 5.140625 2.816406 8.339844 8.195312 8.339844 14.039062v373.332031c0 5.847657-3.199219 11.222657-8.339844 14.039063-2.390625 1.320312-5.015625 1.960937-7.660156 1.960937zm0 0"/><path d="m80 469.332031c-8.832031 0-16-7.167969-16-16v-208c0-8.832031 7.167969-16 16-16s16 7.167969 16 16v208c0 8.832031-7.167969 16-16 16zm0 0"/><path d="m122.667969 512c-4.097657 0-8.191407-1.558594-11.308594-4.691406l-31.359375-31.363282-31.359375 31.363282c-6.25 6.25-16.382813 6.25-22.636719 0-6.25-6.253906-6.25-16.386719 0-22.636719l42.667969-42.667969c6.25-6.25 16.382813-6.25 22.636719 0l42.664062 42.667969c6.25 6.25 6.25 16.382813 0 22.636719-3.113281 3.132812-7.210937 4.691406-11.304687 4.691406zm0 0"/><path d="m410.667969 405.332031h-42.667969c-8.832031 0-16-7.167969-16-16s7.167969-16 16-16h42.667969c2.941406 0 5.332031-2.386719 5.332031-5.332031v-330.667969c0-2.941406-2.390625-5.332031-5.332031-5.332031h-42.667969c-8.832031 0-16-7.167969-16-16s7.167969-16 16-16h42.667969c20.585937 0 37.332031 16.746094 37.332031 37.332031v330.667969c0 20.585938-16.746094 37.332031-37.332031 37.332031zm0 0"/></svg>