<?xml version="1.0" encoding="iso-8859-1"?><!DOCTYPE svg PUBLIC "-//W3C//DTD SVG 1.1//EN" "http://www.w3.org/Graphics/SVG/1.1/DTD/svg11.dtd"><svg viewBox="0 0 512 512" xmlns="http://www.w3.org/2000/svg" xmlns:xlink="http://www.w3.org/1999/xlink"><style>:root>svg{display:none}:root>svg:target{display:block}</style><svg viewBox="0 0 491.86 491.86" id="add" xmlns="http://www.w3.org/2000/svg"><path d="M465.167 211.614H280.245V26.691c0-8.424-11.439-26.69-34.316-26.69s-34.316 18.267-34.316 26.69v184.924H26.69C18.267 211.614 0 223.053 0 245.929s18.267 34.316 26.69 34.316h184.924v184.924c0 8.422 11.438 26.69 34.316 26.69s34.316-18.268 34.316-26.69V280.245H465.17c8.422 0 26.69-11.438 26.69-34.316s-18.27-34.315-26.693-34.315z"/></svg><svg viewBox="0 0 505.145 505.145" id="android" xmlns="http://www.w3.org/2000/svg"><path d="M68.541 164.715h-1.294c-16.588 0-30.113 13.568-30.113 30.113v131.107c0 16.61 13.525 30.134 30.113 30.134h1.316c16.588 0 30.113-13.568 30.113-30.134V194.827c-.022-16.544-13.568-30.112-30.135-30.112zM113.085 376.54c0 15.229 12.446 27.632 27.675 27.632h29.574v70.817c0 16.631 13.568 30.156 30.113 30.156h1.294c16.61 0 30.156-13.546 30.156-30.156v-70.817h41.33v70.817c0 16.631 13.611 30.156 30.156 30.156h1.273c16.609 0 30.134-13.546 30.134-30.156v-70.817h29.595c15.207 0 27.654-12.403 27.654-27.632V169.525H113.085V376.54zM322.041 43.983l23.491-36.26c1.51-2.287.841-5.414-1.467-6.903-2.286-1.51-5.414-.884-6.903 1.467l-24.353 37.512c-18.27-7.485-38.676-11.691-60.226-11.691-21.571 0-41.934 4.206-60.247 11.691l-24.31-37.512C166.538-.064 163.388-.69 161.08.82c-2.308 1.488-2.977 4.616-1.467 6.903l23.512 36.26c-42.387 20.773-70.968 59.924-70.968 104.834 0 2.761.173 5.479.41 8.175H392.62c.237-2.696.388-5.414.388-8.175.001-44.91-28.602-84.061-70.967-104.834zm-134.386 64.928c-7.442 0-13.482-5.997-13.482-13.46 0-7.463 6.04-13.439 13.482-13.439 7.485 0 13.482 5.975 13.482 13.439s-6.04 13.46-13.482 13.46zm129.835 0c-7.442 0-13.482-5.997-13.482-13.46 0-7.463 6.04-13.439 13.482-13.439 7.463 0 13.46 5.975 13.46 13.439 0 7.463-5.997 13.46-13.46 13.46zM437.876 164.715h-1.251c-16.588 0-30.156 13.568-30.156 30.113v131.107c0 16.61 13.59 30.134 30.156 30.134h1.273c16.609 0 30.113-13.568 30.113-30.134V194.827c0-16.544-13.547-30.112-30.135-30.112z"/></svg><svg viewBox="0 0 305 305" id="apple" xmlns="http://www.w3.org/2000/svg"><path d="M40.738 112.119c-25.785 44.745-9.393 112.648 19.121 153.82C74.092 286.523 88.502 305 108.239 305c.372 0 .745-.007 1.127-.022 9.273-.37 15.974-3.225 22.453-5.984 7.274-3.1 14.797-6.305 26.597-6.305 11.226 0 18.39 3.101 25.318 6.099 6.828 2.954 13.861 6.01 24.253 5.815 22.232-.414 35.882-20.352 47.925-37.941 12.567-18.365 18.871-36.196 20.998-43.01l.086-.271a2.5 2.5 0 00-1.328-3.066c-.032-.015-.15-.064-.183-.078-3.915-1.601-38.257-16.836-38.618-58.36-.335-33.736 25.763-51.601 30.997-54.839l.244-.152a2.498 2.498 0 00.71-3.511c-18.014-26.362-45.624-30.335-56.74-30.813a50.043 50.043 0 00-4.95-.242c-13.056 0-25.563 4.931-35.611 8.893-6.936 2.735-12.927 5.097-17.059 5.097-4.643 0-10.668-2.391-17.645-5.159-9.33-3.703-19.905-7.899-31.1-7.899-.267 0-.53.003-.789.008-26.03.383-50.626 15.275-64.186 38.859z"/><path d="M212.101.002c-15.763.642-34.672 10.345-45.974 23.583-9.605 11.127-18.988 29.679-16.516 48.379a2.499 2.499 0 002.284 2.164c1.064.083 2.15.125 3.232.126 15.413 0 32.04-8.527 43.395-22.257 11.951-14.498 17.994-33.104 16.166-49.77a2.515 2.515 0 00-2.587-2.225z"/></svg><svg viewBox="0 0 480 480" id="bed" xmlns="http://www.w3.org/2000/svg"><path d="M472 272h-8v-24a39.999 39.999 0 00-24-36.608V88a8 8 0 00-4.8-7.328A31.666 31.666 0 00440 64c0-17.673-14.327-32-32-32-17.673 0-32 14.327-32 32a31.675 31.675 0 004.448 16H99.552A31.675 31.675 0 00104 64c0-17.673-14.327-32-32-32S40 46.327 40 64a31.666 31.666 0 004.8 16.672A8 8 0 0040 88v123.392A39.999 39.999 0 0016 248v24H8a8 8 0 00-8 8v112a8 8 0 008 8h8v40a8 8 0 008 8h32a8 8 0 008-8v-40h352v40a8 8 0 008 8h32a8 8 0 008-8v-40h8a8 8 0 008-8V280a8 8 0 00-8-8zM408 48c8.837 0 16 7.163 16 16s-7.163 16-16 16-16-7.163-16-16 7.163-16 16-16zM72 48c8.837 0 16 7.163 16 16s-7.163 16-16 16-16-7.163-16-16 7.163-16 16-16zM56 96h368v112h-32.208A39.583 39.583 0 00400 184v-16c-.026-22.08-17.92-39.974-40-40h-64c-22.08.026-39.974 17.92-40 40v16a39.583 39.583 0 008.208 24h-48.416A39.583 39.583 0 00224 184v-16c-.026-22.08-17.92-39.974-40-40h-64c-22.08.026-39.974 17.92-40 40v16a39.583 39.583 0 008.208 24H56V96zm328 72v16c0 13.255-10.745 24-24 24h-64c-13.255 0-24-10.745-24-24v-16c0-13.255 10.745-24 24-24h64c13.255 0 24 10.745 24 24zm-176 0v16c0 13.255-10.745 24-24 24h-64c-13.255 0-24-10.745-24-24v-16c0-13.255 10.745-24 24-24h64c13.255 0 24 10.745 24 24zM32 248c0-13.255 10.745-24 24-24h368c13.255 0 24 10.745 24 24v24H32v-24zm16 184H32v-32h16v32zm400 0h-16v-32h16v32zm16-48H16v-96h448v96z"/><path d="M72 352H40a8 8 0 000 16h32a8 8 0 000-16zM440 352H104a8 8 0 000 16h336a8 8 0 000-16z"/></svg><svg viewBox="0 0 420.707 420.707" id="granny" xmlns="http://www.w3.org/2000/svg"><path d="M109.77 226.062a8 8 0 005.657 13.657 7.976 7.976 0 005.657-2.343c7.505-7.506 19.718-7.505 27.222 0a8 8 0 0011.313 0 7.998 7.998 0 000-11.313c-13.744-13.744-36.106-13.744-49.849-.001zM146.54 290.658c-7.505 7.505-19.718 7.505-27.222 0a8 8 0 00-11.313 0 7.998 7.998 0 000 11.313c6.873 6.873 15.897 10.308 24.924 10.308 9.025 0 18.054-3.437 24.925-10.308a7.999 7.999 0 000-11.313 8 8 0 00-11.314 0zM301.426 290.658c-7.505 7.505-19.717 7.505-27.222 0a8 8 0 10-11.314 11.313c6.872 6.872 15.898 10.308 24.925 10.308s18.053-3.436 24.924-10.308a7.998 7.998 0 000-11.313 8 8 0 00-11.313 0zM271.684 237.376c7.505-7.505 19.717-7.505 27.222 0 1.562 1.562 3.609 2.343 5.657 2.343s4.095-.781 5.657-2.343a7.998 7.998 0 000-11.313c-13.743-13.743-36.105-13.743-49.849 0a7.998 7.998 0 000 11.313 8 8 0 0011.313 0z"/><circle cx="132.929" cy="268.492" r="14"/><circle cx="287.815" cy="268.492" r="14"/><path d="M409.799 214.164c0-11.093-4.861-21.401-12.861-28.48 7.495-7.024 11.931-16.928 11.931-27.689 0-11.319-4.95-21.781-13.326-28.904a37.957 37.957 0 004.326-17.596c0-16.228-10.148-30.137-24.574-35.565a37.875 37.875 0 002.074-12.425c0-20.953-17.047-38-38-38-1.873 0-3.729.135-5.559.404-6.523-12.151-19.176-19.904-33.441-19.904-7.359 0-14.355 2.058-20.377 5.91A38.042 38.042 0 00252.369.005a37.834 37.834 0 00-20.261 5.865A37.883 37.883 0 00210.349.035c-7.739-.329-15.317 1.762-21.756 5.833A37.826 37.826 0 00168.329.005c-10.579 0-20.544 4.421-27.636 11.934-6.044-3.831-13.123-5.934-20.364-5.934-14.26 0-26.91 7.752-33.432 19.905a38.242 38.242 0 00-5.558-.405c-20.953 0-38 17.047-38 38 0 4.294.703 8.475 2.071 12.426-14.425 5.428-24.571 19.336-24.571 35.564 0 6.17 1.504 12.2 4.325 17.594-8.376 7.121-13.325 17.582-13.325 28.906 0 10.763 4.435 20.666 11.928 27.689-7.998 7.079-12.858 17.386-12.858 28.48 0 11.372 5.104 22.016 13.653 29.161a41.843 41.843 0 00-1.826 12.244c0 20.423 14.656 37.479 34 41.227v33.75c0 17.505 7.192 34.695 19.733 47.162 12.424 12.35 28.744 19.088 45.874 18.994 11.26-.066 22.04-2.948 31.653-8.407 11.547 19.96 32.764 32.412 56.377 32.412 23.612 0 44.829-12.452 56.377-32.412 9.613 5.458 20.393 8.34 31.653 8.407l.381.001c17.018 0 33.161-6.737 45.492-18.996 12.54-12.466 19.732-29.656 19.732-47.161v-33.75c19.344-3.747 34-20.804 34-41.227 0-4.271-.645-8.393-1.835-12.279 8.531-7.142 13.626-17.774 13.626-29.126zM38.736 255.569c0-12.241 8.506-22.527 19.916-25.274a755.341 755.341 0 00-1.893 50.017c-10.446-3.376-18.023-13.189-18.023-24.743zm309.272 74.977c0 13.276-5.472 26.33-15.013 35.814-9.379 9.325-21.591 14.401-34.499 14.342-10.978-.064-21.351-3.677-30-10.447a7.998 7.998 0 00-12.368 3.352c-7.487 18.892-25.448 31.1-45.757 31.1-20.31 0-38.271-12.208-45.757-31.1a8 8 0 00-12.369-3.353c-8.648 6.77-19.022 10.383-29.999 10.447-12.897.059-25.119-5.017-34.499-14.341-9.541-9.484-15.013-22.539-15.013-35.814v-46.758c0-49.579 5.021-99.333 14.928-147.923 6.838 11.522 19.157 18.589 32.669 18.589 7.236 0 14.312-2.103 20.357-5.934 7.093 7.513 17.06 11.933 27.64 11.933 7.233 0 14.232-2.05 20.261-5.863a37.888 37.888 0 0021.76 5.832 37.886 37.886 0 0021.76-5.833 37.845 37.845 0 0020.261 5.864c10.581 0 20.546-4.419 27.64-11.933 6.045 3.831 13.122 5.934 20.358 5.934 13.515 0 25.834-7.069 32.672-18.594a741.953 741.953 0 0114.967 148.115v46.571zm15.976-50.233a755.45 755.45 0 00-1.906-50.02c11.417 2.742 19.929 13.031 19.929 25.277.001 11.554-7.577 21.367-18.023 24.743zm-3.255-66.471a757.035 757.035 0 00-12.502-83.563c-1.246-6.002-6.15-10.654-12.192-11.574-.17-.026-.341-.054-.513-.084-6.309-1.112-12.578 2.07-15.599 7.915-3.798 7.352-11.292 11.918-19.555 11.918-6.102 0-11.778-2.448-15.981-6.894a8 8 0 00-12.797 1.596c-3.892 6.968-11.256 11.297-19.219 11.297a21.923 21.923 0 01-14.853-5.794 8 8 0 00-10.819.002 21.936 21.936 0 01-15.967 5.763 8.133 8.133 0 00-.765 0 21.933 21.933 0 01-15.965-5.763 8 8 0 00-10.82-.002 21.923 21.923 0 01-14.853 5.794c-7.963 0-15.328-4.329-19.219-11.297a7.997 7.997 0 00-12.797-1.596c-4.204 4.445-9.879 6.894-15.981 6.894-8.263 0-15.756-4.567-19.555-11.919-3.02-5.844-9.288-9.023-15.607-7.913-.163.029-.327.056-.49.081-6.057.922-10.961 5.577-12.207 11.593l-.034.163a756.823 756.823 0 00-12.443 83.385c-11.04 1.246-20.797 6.783-27.555 14.906a22.02 22.02 0 01-5.533-14.586c0-9.281 5.874-17.61 14.615-20.724a8 8 0 00.25-14.978c-8.465-3.338-13.935-11.372-13.935-20.467 0-8.318 4.62-15.836 12.057-19.62a7.999 7.999 0 002.394-12.398 21.994 21.994 0 01-5.451-14.482c0-11.751 9.188-21.401 20.917-21.969a8.002 8.002 0 005.998-12.811c-2.888-3.825-4.415-8.393-4.415-13.21 0-12.131 9.869-22 22-22 2.588 0 5.125.446 7.541 1.326a7.997 7.997 0 0010.397-5.199c2.783-9.201 11.44-15.626 21.053-15.626 6.108 0 11.785 2.448 15.985 6.894a8 8 0 0012.8-1.595c3.891-6.97 11.253-11.299 19.214-11.299a21.878 21.878 0 0114.846 5.79 8.001 8.001 0 0010.823.005 21.954 21.954 0 0115.865-5.769c.325.02.649.02.971 0a21.95 21.95 0 0115.867 5.769 7.998 7.998 0 0010.817 0 21.915 21.915 0 0114.851-5.794c7.968 0 15.334 4.33 19.225 11.299a8 8 0 0012.8 1.595c4.201-4.446 9.874-6.894 15.975-6.894 9.771 0 18.235 6.28 21.063 15.626a7.998 7.998 0 0010.405 5.197 21.875 21.875 0 017.533-1.324c12.131 0 22 9.869 22 22 0 4.807-1.529 9.377-4.421 13.218a8 8 0 006.003 12.802c11.729.569 20.917 10.219 20.917 21.969a21.992 21.992 0 01-5.451 14.482 7.999 7.999 0 002.391 12.396c7.439 3.788 12.06 11.307 12.06 19.621 0 9.092-5.471 17.126-13.938 20.468a8 8 0 00.25 14.976c8.743 3.118 14.617 11.447 14.617 20.725a22.001 22.001 0 01-5.519 14.559c-6.759-8.111-16.513-13.639-27.549-14.88z"/><path d="M242.245 320.489h-63.747a8 8 0 00-8 8c0 21.986 17.887 39.873 39.874 39.873s39.874-17.887 39.874-39.873a8.001 8.001 0 00-8.001-8zm-31.873 31.873c-10.359 0-19.198-6.632-22.495-15.873h44.989c-3.296 9.241-12.135 15.873-22.494 15.873z"/></svg><svg viewBox="0 0 463 463" id="house" xmlns="http://www.w3.org/2000/svg"><path d="M450.858 191.216a7.495 7.495 0 007.916.857 7.5 7.5 0 004.226-6.748v-40a7.499 7.499 0 00-2.858-5.891L338.043 43.235a23.431 23.431 0 00-29.087 0L263 79.443V65.325a7.5 7.5 0 00-7.5-7.5h-32a7.5 7.5 0 00-7.5 7.5v51.149l-29.142 22.96a7.499 7.499 0 00-2.858 5.891v40a7.5 7.5 0 0012.142 5.892l3.858-3.04v73.086l-69.957-55.117a23.43 23.43 0 00-29.087 0L2.858 283.434A7.497 7.497 0 000 289.325v40a7.5 7.5 0 0012.142 5.891l3.858-3.04v77.649H7.5a7.5 7.5 0 000 15h448a7.5 7.5 0 000-15H447V188.176l3.858 3.04zM231 72.825h17v18.437l-17 13.394V72.825zm-32 76.139l119.24-93.946a8.476 8.476 0 0110.521 0L448 148.964v20.903L328.142 75.434c-1.361-1.073-3.001-1.609-4.642-1.609s-3.28.536-4.642 1.609L199 169.867v-20.903zm-184 144l95.24-75.037a8.476 8.476 0 0110.521 0L200 280.358v20.904l-79.858-62.919a7.497 7.497 0 00-9.283 0L15 313.868v-20.904zm16 27.394l84.5-66.575 84.5 66.576v89.467h-33v-88.5a7.5 7.5 0 00-7.5-7.5h-88a7.5 7.5 0 00-7.5 7.5v88.5H31v-89.468zm48 40.467h73v17H79v-17zm73-15H79v-17h73v17zm-73 47h73v17H79v-17zm217-38.975c-.166-.011-.333-.025-.5-.025-1.97 0-3.91.8-5.3 2.2a7.528 7.528 0 00-2.2 5.3c0 1.97.8 3.91 2.2 5.3 1.39 1.4 3.33 2.2 5.3 2.2.167 0 .334-.014.5-.025v41.025h-33v-97h33v41.025zm136 55.975H311v-104.5a7.5 7.5 0 00-7.5-7.5h-48a7.5 7.5 0 00-7.5 7.5v104.5h-33V176.358l108.5-85.485L432 176.358v233.467z"/><path d="M343.5 376.825h48a7.5 7.5 0 007.5-7.5v-64a7.5 7.5 0 00-7.5-7.5h-48a7.5 7.5 0 00-7.5 7.5v64a7.5 7.5 0 007.5 7.5zm7.5-15v-25h33v25h-33zm33-49v9h-33v-9h33zM343.5 264.825h48a7.5 7.5 0 007.5-7.5v-64a7.5 7.5 0 00-7.5-7.5h-48a7.5 7.5 0 00-7.5 7.5v64a7.5 7.5 0 007.5 7.5zm7.5-15v-25h33v25h-33zm33-49v9h-33v-9h33zM303.5 185.825h-48a7.5 7.5 0 00-7.5 7.5v64a7.5 7.5 0 007.5 7.5h48a7.5 7.5 0 007.5-7.5v-64a7.5 7.5 0 00-7.5-7.5zm-7.5 15v9h-33v-9h33zm-33 49v-25h33v25h-33z"/></svg><svg viewBox="0 0 60 60" id="more" xmlns="http://www.w3.org/2000/svg"><path d="M8 22c-4.411 0-8 3.589-8 8s3.589 8 8 8 8-3.589 8-8-3.589-8-8-8zM52 22c-4.411 0-8 3.589-8 8s3.589 8 8 8 8-3.589 8-8-3.589-8-8-8zM30 22c-4.411 0-8 3.589-8 8s3.589 8 8 8 8-3.589 8-8-3.589-8-8-8z"/></svg><svg viewBox="0 0 357 357" id="play-arrow" xmlns="http://www.w3.org/2000/svg"><path d="M38.25 0v357l280.5-178.5z"/></svg><svg viewBox="0 0 512.001 512" id="real-estate" xmlns="http://www.w3.org/2000/svg"><path d="M102.004 451.96c-5.524 0-10 4.481-10 10v.009c0 5.523 4.476 10 10 10 5.523 0 10-4.485 10-10.008 0-5.52-4.477-10-10-10zm0 0M332.004 239.965H332c-5.523 0-10 4.48-10 10 0 5.523 4.484 10.004 10.004 10.004 5.523 0 10-4.48 10-10.004 0-5.52-4.477-10-10-10zm0 0M322.008 161.715c16.543 0 30-13.457 30-30s-13.457-30-30-30-30 13.457-30 30 13.457 30 30 30zm0-40c5.512 0 10 4.484 10 10 0 5.512-4.488 10-10 10-5.516 0-10-4.488-10-10 0-5.516 4.484-10 10-10zm0 0"/><path d="M157.55 177.168c1.544.238 3.09.355 4.622.355 4.152 0 8.219-.878 12.004-2.55v134.996c0 5.523 4.476 10 10 10H459.84c5.52 0 10-4.477 10-10V174.977c12.57 5.535 27.77 1.824 36.222-9.704 9.762-13.32 6.872-32.105-6.437-41.859L340.156 6.082c-10.484-7.988-25.215-8.125-35.875-.312l-47.726 35.117c-4.446 3.27-5.399 9.531-2.125 13.98 3.273 4.45 9.53 5.399 13.98 2.13l47.711-35.106c3.547-2.602 8.461-2.551 11.941.125.055.043.11.082.165.12l159.558 117.4c4.43 3.245 5.39 9.487 2.145 13.913-3.242 4.426-9.489 5.39-13.899 2.153L327.934 46.637a10.004 10.004 0 00-11.856 0L167.996 155.594a9.887 9.887 0 01-7.398 1.808 9.903 9.903 0 01-6.516-3.953 9.893 9.893 0 01-1.809-7.402 9.893 9.893 0 013.965-6.524l47.735-35.117c4.445-3.273 5.398-9.531 2.129-13.98-3.274-4.453-9.536-5.403-13.98-2.13l-47.72 35.11c-6.453 4.73-10.68 11.688-11.898 19.598-1.219 7.906.719 15.816 5.445 22.27 4.735 6.453 11.692 10.675 19.602 11.894zm114.454 82.797h-37.828v-39.996h37.828zm20.004-60h60v100.004h-60zm80 20.004h37.828v39.996h-37.828zm-50-152.86L449.84 161.16V299.97h-77.832v-20h47.828c5.523 0 10-4.48 10-10v-60c0-5.524-4.477-10-10-10h-47.828c0-11.028-8.973-20-20-20h-60c-11.031 0-20.004 8.972-20.004 20h-47.828c-5.52 0-10 4.476-10 10v60c0 5.52 4.48 10 10 10h47.828v20h-77.828V161.164zm0 0"/><path d="M230.27 82.648c2.09 0 4.195-.652 5.992-2l.008-.003c4.417-3.317 5.308-9.582 1.996-14s-9.586-5.31-14.004-1.997-5.313 9.582-2 14a9.993 9.993 0 008.008 4zm0 0M510.559 369.66c-4.32-13.426-19.164-25.289-41.551-19.61l-.172.048-91.527 24.957c-1.625-6.54-5.368-12.317-10.778-16.528-6.347-4.937-14.215-7.109-22.136-6.117-5.352.672-19.786 2.77-35.063 4.985-14.5 2.105-29.496 4.28-34.648 4.93-11.82 1.48-25.723-4.118-40.446-10.048-23.34-9.398-51.558-20.757-82.23-7.152v-3.156c0-5.524-4.48-10-10-10H62c-5.52 0-10 4.476-10 10H10c-5.523 0-10 4.476-10 10s4.477 10 10 10h42v120.004H10c-5.523 0-10 4.476-10 10 0 5.523 4.477 10 10 10h42c0 5.523 4.48 10 10 10h80.004c5.523 0 10-4.477 10-10V491.53l13.344.086h.062c5.492 0 9.965-4.437 10-9.937.035-5.524-4.414-10.028-9.937-10.063l-13.47-.086v-103.75c26.18-16.492 49.813-6.996 74.763 3.051 16.441 6.621 33.445 13.469 50.41 11.336 5.344-.672 19.762-2.766 35.027-4.98 14.512-2.106 29.52-4.282 34.68-4.934 2.617-.324 5.234.402 7.36 2.055a10.212 10.212 0 013.89 6.836c.219 1.77.8 6.476-11.73 12.289-26.532 12.304-54.801 22.836-77.563 28.894a10.001 10.001 0 105.144 19.328c23.832-6.344 53.297-17.304 80.832-30.078 9.579-4.441 15.465-9.61 18.938-14.82l100.254-27.34c10.543-2.648 15.957 1.547 17.508 6.363 1.523 4.746-.313 10.856-7.856 13.832-7.844 2.989-26.582 11.239-50.293 21.672-31.41 13.824-70.5 31.027-101.668 43.672-37.047 15.023-48.324 17.262-86.261 17.156h-.028c-5.512 0-9.984 4.457-10 9.969-.02 5.523 4.445 10.016 9.969 10.031.82 0 1.629.004 2.426.004 38.613 0 52.863-2.992 91.41-18.629 31.441-12.754 70.68-30.023 102.207-43.898 22.574-9.934 42.066-18.512 49.402-21.305l.094-.035c18.684-7.324 24.023-24.957 19.64-38.59zM72.004 491.973V351.969h60v140.004zm0 0"/><path d="M205.414 471.867h-.008c-5.523 0-9.996 4.477-9.996 10 0 5.524 4.48 10 10.004 10 5.524 0 10-4.476 10-10 0-5.523-4.476-10-10-10zm0 0"/></svg><svg viewBox="0 0 512 512" id="search" xmlns="http://www.w3.org/2000/svg"><path d="M495 466.2L377.2 348.4c29.2-35.6 46.8-81.2 46.8-130.9C424 103.5 331.5 11 217.5 11 103.4 11 11 103.5 11 217.5S103.4 424 217.5 424c49.7 0 95.2-17.5 130.8-46.7L466.1 495c8 8 20.9 8 28.9 0 8-7.9 8-20.9 0-28.8zm-277.5-83.3C126.2 382.9 52 308.7 52 217.5S126.2 52 217.5 52C308.7 52 383 126.3 383 217.5s-74.3 165.4-165.5 165.4z"/></svg><svg viewBox="0 0 512 512" id="student" xmlns="http://www.w3.org/2000/svg"><path d="M512 367.165V213.244c0-18.566-15.105-33.67-33.67-33.67H267.437v-3.955c0-5.193-1.837-9.961-4.89-13.7a21.636 21.636 0 004.521-9.69c8.581-5.059 14.051-14.325 14.051-24.497 0-4.804-1.237-9.499-3.555-13.682a28.217 28.217 0 003.555-13.682c0-10.13-5.427-19.314-13.842-24.376.107-.992.16-1.988.16-2.988 0-14.409-10.734-26.359-24.626-28.272-5.072-8.523-14.305-13.949-24.437-13.949-1.301 0-2.615.1-3.931.3-5.659-4.582-12.728-7.141-20.012-7.141-.973 0-1.948.049-2.936.147-6.084-4.531-13.407-6.988-21.006-6.988s-14.922 2.457-21.007 6.988a29.705 29.705 0 00-2.936-.147 31.704 31.704 0 00-19.908 6.981c-9.011.899-17.031 6.08-21.63 13.81-13.892 1.912-24.626 13.862-24.626 28.271 0 .999.053 1.996.16 2.988C72.128 81.054 66.7 90.238 66.7 100.368c0 4.805 1.237 9.499 3.555 13.682a28.209 28.209 0 00-3.555 13.682c0 10.172 5.469 19.438 14.052 24.497a21.493 21.493 0 001.946 5.714c-5.532 3.937-9.157 10.384-9.157 17.675V189.3c0 11.964 9.733 21.699 21.699 21.699h3.563l.583 3.642a35.375 35.375 0 0012.286 21.591l2.916 2.43v22.625a5.636 5.636 0 01-4 5.414l-59.96 18.449c-14.938 4.597-24.975 18.186-24.975 33.816v99.506c0 9.887 3.426 18.985 9.14 26.188H16.568C7.432 444.66 0 452.092 0 461.228v17.102c0 9.136 7.432 16.568 16.568 16.568h478.864c9.136 0 16.568-7.432 16.568-16.568v-17.102c0-9.136-7.432-16.568-16.568-16.568h-87.044l-5.844-43.825h75.786c18.565 0 33.67-15.104 33.67-33.67zM95.238 194.966a5.672 5.672 0 01-5.665-5.665v-13.682c0-2.07 1.128-3.865 2.79-4.854l3.873 24.201h-.998zm1.183-46.473c.032-.243.062-.485.084-.731a8.018 8.018 0 00-5.346-8.296c-5.04-1.756-8.426-6.471-8.426-11.733 0-3.877 1.776-6.662 3.265-8.316a8.02 8.02 0 00-.001-10.732c-1.49-1.654-3.265-4.439-3.265-8.316 0-5.586 3.808-10.518 9.262-11.994a8.015 8.015 0 005.345-10.726c-.615-1.527-.926-3.09-.926-4.643 0-6.798 5.452-12.347 12.214-12.503.341.046.684.084 1.033.105a8.018 8.018 0 008.048-5.365c1.727-4.958 6.317-8.314 11.475-8.423a8.033 8.033 0 006.223-2.273c3.006-2.948 6.962-4.572 11.138-4.572 1.081 0 2.227.14 3.503.427a8.02 8.02 0 007.247-1.976c3.635-3.411 8.32-5.29 13.194-5.29s9.559 1.879 13.193 5.291a8.016 8.016 0 007.247 1.976c1.276-.288 2.422-.427 3.503-.427 4.477 0 8.646 1.878 11.739 5.287a8.018 8.018 0 008.499 2.21c1.31-.441 2.523-.656 3.706-.656 5.262 0 9.978 3.386 11.734 8.425a8.012 8.012 0 008.048 5.365c.327-.019.649-.055 1.031-.105 6.762.155 12.215 5.705 12.215 12.503 0 1.553-.311 3.116-.925 4.642a8.014 8.014 0 005.346 10.727c5.452 1.476 9.261 6.408 9.261 11.994 0 3.877-1.776 6.662-3.265 8.316a8.018 8.018 0 000 10.732c1.49 1.654 3.265 4.439 3.265 8.316 0 5.262-3.386 9.978-8.426 11.733a8.018 8.018 0 00-5.346 8.296c.022.246.052.49.086.733-.106 2.434-1.81 4.545-4.217 5.185-.257.068-7.924.241-7.924.241l-4.61-27.66a8.022 8.022 0 00-8.506-6.676c-.372.028-.736.073-1.102.123l-.047.006c-4.108-.073-7.908-2.16-10.199-5.616a8.018 8.018 0 00-13.362-.001c-2.333 3.518-6.228 5.618-10.422 5.618-4.193 0-8.088-2.1-10.422-5.618a8.018 8.018 0 00-13.362-.001c-2.333 3.518-6.228 5.618-10.422 5.618-4.193 0-8.088-2.1-10.422-5.618a8.018 8.018 0 00-13.362-.001c-2.292 3.456-6.092 5.543-10.199 5.616l-.047-.006a18.05 18.05 0 00-1.103-.123c-4.125-.315-7.823 2.586-8.505 6.676l-4.609 27.663s-7.666-.172-7.923-.24c-2.405-.64-4.11-2.753-4.213-5.187zm154.983 27.126v3.955h-4.2l1.41-8.809c1.662.989 2.79 2.784 2.79 4.854zm-142.934-5.665h1.085a14.815 14.815 0 0014.656-12.415l3.714-22.289a28.412 28.412 0 0011.779-5.2 28.436 28.436 0 0017.102 5.699 28.445 28.445 0 0017.102-5.699 28.436 28.436 0 0017.102 5.699 28.445 28.445 0 0017.102-5.699 28.407 28.407 0 0011.779 5.2l3.714 22.29a14.8 14.8 0 009.074 11.324l-1.713 10.71h-9.172c-18.566 0-33.67 15.105-33.67 33.67v35.58a12.52 12.52 0 01-4.544.869h-26.185c-2.92 0-5.763-1.029-8.006-2.899l-27.457-22.881a19.341 19.341 0 01-6.718-11.806l-6.744-42.153zm6.832 112.072c9.163-2.819 15.318-11.154 15.318-20.739v-9.264l8.506 7.089a28.591 28.591 0 0018.271 6.615h26.185c1.525 0 3.045-.13 4.544-.374v51.584a88.708 88.708 0 01-14.286 1.166c-26.743 0-51.963-12.236-68.568-32.99l10.03-3.087zm-73.615 36.939c0-8.547 5.489-15.978 13.657-18.492l33.647-10.352c19.455 27.569 51.127 44.014 84.849 44.014 4.789 0 9.564-.337 14.286-.988v34.018c0 18.566 15.104 33.67 33.67 33.67h34.739v43.29c0 .181.015.357.027.534H212.71v-9.086c0-18.566-15.105-33.67-33.67-33.67H93.528a.534.534 0 01-.534-.534v-51.307a8.017 8.017 0 00-16.034 0v51.307c0 9.136 7.432 16.568 16.568 16.568h51.841v26.722H67.875c-14.44 0-26.188-11.748-26.188-26.188v-99.506zm154.989 116.609v9.086h-35.273v-26.722h17.637c9.724-.001 17.636 7.911 17.636 17.636zm298.756 25.119c.295 0 .534.239.534.534v17.102a.534.534 0 01-.534.534H16.568a.534.534 0 01-.534-.534v-17.102c0-.295.239-.534.534-.534h478.864zM272.541 444.66c.012-.177.027-.354.027-.534v-43.29h25.012l-5.844 43.825h-19.195zm35.371 0l13.913-104.349c.6-4.496 4.471-7.885 9.007-7.885h38.462c4.535 0 8.407 3.389 9.006 7.885l13.914 104.349h-84.302zm93.458-59.858c-.324 0-.64.025-.955.062l-6.223-46.672c-1.657-12.427-12.361-21.799-24.898-21.799h-38.462c-12.537 0-23.242 9.372-24.899 21.799l-6.223 46.672a8.119 8.119 0 00-.955-.062h-76.96c-9.725 0-17.637-7.912-17.637-17.637V213.244c0-9.725 7.912-17.637 17.637-17.637H478.33c9.725 0 17.637 7.912 17.637 17.637v153.921c0 9.725-7.912 17.637-17.637 17.637h-76.96z"/><path d="M350.063 247.983c-13.851 0-25.119 11.268-25.119 25.119 0 13.851 11.268 25.119 25.119 25.119 13.851 0 25.119-11.268 25.119-25.119 0-13.85-11.269-25.119-25.119-25.119zm0 34.205c-5.01 0-9.086-4.076-9.086-9.086 0-5.01 4.076-9.086 9.086-9.086 5.01 0 9.086 4.076 9.086 9.086-.001 5.01-4.076 9.086-9.086 9.086z"/></svg><svg viewBox="-32 0 512 512" id="studio" xmlns="http://www.w3.org/2000/svg"><path d="M144 256H37.332C16.746 256 0 239.254 0 218.668v-32c0-20.59 16.746-37.336 37.332-37.336H144c8.832 0 16 7.168 16 16V240c0 8.832-7.168 16-16 16zM37.332 181.332A5.337 5.337 0 0032 186.668v32A5.336 5.336 0 0037.332 224H128v-42.668zm0 0"/><path d="M368 405.332a16.09 16.09 0 01-8.66-2.539l-224-144c-7.426-4.777-9.578-14.676-4.8-22.102 4.776-7.464 14.698-9.62 22.12-4.82L352 360.02V45.313L152.66 173.46c-7.422 4.777-17.344 2.668-22.12-4.82-4.778-7.403-2.626-17.325 4.8-22.102l224-144c4.926-3.137 11.176-3.39 16.32-.578A16.017 16.017 0 01384 16v373.332c0 5.848-3.2 11.223-8.34 14.04a15.78 15.78 0 01-7.66 1.96zm0 0M80 469.332c-8.832 0-16-7.168-16-16v-208c0-8.832 7.168-16 16-16s16 7.168 16 16v208c0 8.832-7.168 16-16 16zm0 0"/><path d="M122.668 512a15.89 15.89 0 01-11.309-4.691L80 475.945 48.64 507.31c-6.25 6.25-16.382 6.25-22.636 0-6.25-6.254-6.25-16.387 0-22.637l42.668-42.668c6.25-6.25 16.383-6.25 22.637 0l42.664 42.668c6.25 6.25 6.25 16.383 0 22.637-3.114 3.132-7.211 4.691-11.305 4.691zm0 0M410.668 405.332H368c-8.832 0-16-7.168-16-16s7.168-16 16-16h42.668A5.334 5.334 0 00416 368V37.332A5.336 5.336 0 00410.668 32H368c-8.832 0-16-7.168-16-16s7.168-16 16-16h42.668C431.254 0 448 16.746 448 37.332V368c0 20.586-16.746 37.332-37.332 37.332zm0 0"/></svg><svg viewBox="0 0 512 512" id="user" xmlns="http://www.w3.org/2000/svg"><path d="M437.02 330.98c-27.883-27.882-61.071-48.523-97.281-61.018C378.521 243.251 404 198.548 404 148 404 66.393 337.607 0 256 0S108 66.393 108 148c0 50.548 25.479 95.251 64.262 121.962-36.21 12.495-69.398 33.136-97.281 61.018C26.629 379.333 0 443.62 0 512h40c0-119.103 96.897-216 216-216s216 96.897 216 216h40c0-68.38-26.629-132.667-74.98-181.02zM256 256c-59.551 0-108-48.448-108-108S196.449 40 256 40s108 48.448 108 108-48.449 108-108 108z"/></svg></svg>